<svg width="24" height="24" viewBox="0 0 24 24" fill="none" xmlns="http://www.w3.org/2000/svg">
<path d="M20.7364 19.417C21.1362 19.8252 21.074 20.4327 20.5987 20.7754C20.3848 20.9277 20.1317 21 19.8739 21C19.5532 21 19.2346 20.8832 19.012 20.656L11.9995 13.4989L4.98747 20.6545C4.76389 20.8835 4.44516 21 4.12409 21C3.8685 21 3.61225 20.9259 3.40133 20.774C2.92605 20.4313 2.86371 19.8234 3.26362 19.4156L10.5324 12.0003L3.26376 4.58519C2.8639 4.17699 2.92614 3.56951 3.40147 3.22679C3.87614 2.88328 4.58625 2.93591 4.98653 3.34451L11.9995 10.5017L19.0115 3.34612C19.4121 2.93752 20.121 2.88529 20.5962 3.22808C21.0715 3.57087 21.1339 4.17867 20.7339 4.58647L13.4666 12.0003L20.7364 19.417Z" fill="#323232"/>
</svg>
