<svg width="24" height="24" viewBox="0 0 24 24" fill="none" xmlns="http://www.w3.org/2000/svg">
<path d="M21.4172 5.41719C22.1984 4.63594 22.1984 3.36719 21.4172 2.58594C20.6359 1.80469 19.3672 1.80469 18.5859 2.58594L12.0047 9.17344L5.41719 2.59219C4.63594 1.81094 3.36719 1.81094 2.58594 2.59219C1.80469 3.37344 1.80469 4.64219 2.58594 5.42344L9.17344 12.0047L2.59219 18.5922C1.81094 19.3734 1.81094 20.6422 2.59219 21.4234C3.37344 22.2047 4.64219 22.2047 5.42344 21.4234L12.0047 14.8359L18.5922 21.4172C19.3734 22.1984 20.6422 22.1984 21.4234 21.4172C22.2047 20.6359 22.2047 19.3672 21.4234 18.5859L14.8359 12.0047L21.4172 5.41719Z" fill="#323232"/>
</svg>
