<svg width="24" height="24" viewBox="0 0 24 24" fill="none" xmlns="http://www.w3.org/2000/svg">
<path d="M6.75 9.5V7C6.75 4.23867 8.98828 2 11.75 2C14.5117 2 16.75 4.23867 16.75 7V9.5H18C19.3789 9.5 20.5 10.6211 20.5 12V19.5C20.5 20.8789 19.3789 22 18 22H5.5C4.11914 22 3 20.8789 3 19.5V12C3 10.6211 4.11914 9.5 5.5 9.5H6.75ZM8.625 9.5H14.875V7C14.875 5.27422 13.4766 3.875 11.75 3.875C10.0234 3.875 8.625 5.27422 8.625 7V9.5ZM4.875 19.5C4.875 19.8438 5.15469 20.125 5.5 20.125H18C18.3438 20.125 18.625 19.8438 18.625 19.5V12C18.625 11.6562 18.3438 11.375 18 11.375H5.5C5.15469 11.375 4.875 11.6562 4.875 12V19.5Z" fill="#323232"/>
</svg>
