<svg width="24" height="24" viewBox="0 0 24 24" fill="none" xmlns="http://www.w3.org/2000/svg">
<path d="M4.5 6C4.15625 6 3.875 6.3 3.875 6.66667V7.5875L10.6133 13.4875C11.4219 14.1958 12.582 14.1958 13.3906 13.4875L20.125 7.5875V6.66667C20.125 6.3 19.8438 6 19.5 6H4.5ZM3.875 10.175V17.3333C3.875 17.7 4.15625 18 4.5 18H19.5C19.8438 18 20.125 17.7 20.125 17.3333V10.175L14.5781 15.0333C13.0781 16.3458 10.918 16.3458 9.42188 15.0333L3.875 10.175ZM2 6.66667C2 5.19583 3.12109 4 4.5 4H19.5C20.8789 4 22 5.19583 22 6.66667V17.3333C22 18.8042 20.8789 20 19.5 20H4.5C3.12109 20 2 18.8042 2 17.3333V6.66667Z" fill="#323232"/>
</svg>
