<svg width="24" height="24" viewBox="0 0 24 24" fill="none" xmlns="http://www.w3.org/2000/svg">
<path d="M7.71853 8.87473C7.02519 8.87473 6.50373 9.43135 6.50373 10.1247C6.50373 10.818 7.06035 11.3746 7.71853 11.3746C8.3767 11.3746 8.93332 10.818 8.93332 10.1247C8.93332 9.43135 8.41381 8.87473 7.71853 8.87473ZM12.0934 8.87473C11.4 8.87473 10.8438 9.43135 10.8438 10.1247C10.8438 10.818 11.4004 11.3746 12.0934 11.3746C12.7867 11.3746 13.3082 10.818 13.3082 10.1247C13.3082 9.43135 12.7886 8.87473 12.0934 8.87473ZM16.4682 8.87473C15.7749 8.87473 15.2534 9.43135 15.2534 10.1247C15.2534 10.818 15.81 11.3746 16.4682 11.3746C17.1264 11.3746 17.683 10.818 17.683 10.1247C17.683 9.43135 17.1635 8.87473 16.4682 8.87473ZM19.4993 2H4.4999C3.123 2 2 3.123 2 4.46475V15.6792C2 17.0561 3.123 18.1439 4.4999 18.1439H8.24976V21.3899C8.24976 21.7741 8.68021 21.9973 8.9966 21.7688L13.8753 18.1087H19.5001C20.877 18.1087 22 16.9857 22 15.644V4.46475C21.9992 3.123 20.9094 2 19.4993 2ZM20.1594 15.7495C20.1594 16.0912 19.8763 16.3744 19.5345 16.3744H13.2847L10.1598 18.7181V16.3744H4.53506C4.19327 16.3744 3.91008 16.0912 3.91008 15.7495V4.4999C3.91008 4.15812 4.19327 3.87493 4.53506 3.87493H19.5345C19.8763 3.87493 20.1594 4.15812 20.1594 4.4999V15.7495Z" fill="#323232"/>
</svg>
