<svg width="24" height="24" viewBox="0 0 24 24" fill="none" xmlns="http://www.w3.org/2000/svg">
<path d="M13.875 2.9375C13.875 3.45703 14.293 3.875 14.8125 3.875H18.8008L10.0859 12.5859C9.71875 12.9531 9.71875 13.5469 10.0859 13.9102C10.4531 14.2734 11.0469 14.2773 11.4102 13.9102L20.1211 5.19922V9.1875C20.1211 9.70703 20.5391 10.125 21.0586 10.125C21.5781 10.125 21.9961 9.70703 21.9961 9.1875V2.9375C21.9961 2.41797 21.5781 2 21.0586 2H14.8125C14.293 2 13.875 2.41797 13.875 2.9375ZM4.8125 3.25C3.25781 3.25 2 4.50781 2 6.0625V19.1875C2 20.7422 3.25781 22 4.8125 22H17.9375C19.4922 22 20.75 20.7422 20.75 19.1875V14.1875C20.75 13.668 20.332 13.25 19.8125 13.25C19.293 13.25 18.875 13.668 18.875 14.1875V19.1875C18.875 19.707 18.457 20.125 17.9375 20.125H4.8125C4.29297 20.125 3.875 19.707 3.875 19.1875V6.0625C3.875 5.54297 4.29297 5.125 4.8125 5.125H9.8125C10.332 5.125 10.75 4.70703 10.75 4.1875C10.75 3.66797 10.332 3.25 9.8125 3.25H4.8125Z" fill="#323232"/>
</svg>
